# Blender v2.93.4 OBJ File: 'Room #1.blend'
# www.blender.org
mtllib room.mtl
o Room_Plane
v -4.000000 0.411410 4.000000
v 4.000000 0.411410 4.000000
v -4.000000 0.411410 -4.000000
v 4.000000 0.411410 -4.000000
v -4.000000 5.911410 4.000000
v -4.000000 5.911410 -4.000000
v 4.000000 5.911410 -4.000000
v -4.400000 0.011410 -4.400000
v -4.400000 0.011410 4.000000
v 4.000000 0.011410 4.000000
v 4.000000 0.011410 -4.400000
v -4.400000 5.911410 -4.400000
v -4.400000 5.911410 4.000000
v 4.000000 5.911410 -4.400000
vt 0.000000 1.000000
vt 1.000000 0.000000
vt 0.000000 0.000000
vt 0.000000 1.000000
vt 1.000000 1.000000
vt 0.000000 0.000000
vt 1.000000 0.000000
vt 0.000000 1.000000
vt 0.000000 0.000000
vt 1.000000 1.000000
vt 0.000000 1.000000
vt 0.000000 0.000000
vt 1.000000 1.000000
vt 1.000000 1.000000
vn 0.0000 -1.0000 0.0000
vn 0.0000 0.0000 -1.0000
vn -1.0000 0.0000 0.0000
vn 0.0000 1.0000 0.0000
vn 0.0000 0.0000 1.0000
vn 1.0000 0.0000 0.0000
usemtl Floor
s off
f 3/1/1 2/2/1 1/3/1
usemtl Wall
f 6/4/2 4/5/2 3/1/2
f 5/6/3 3/1/3 1/3/3
f 10/7/4 8/8/4 9/9/4
f 11/10/5 12/11/5 8/8/5
f 8/8/6 13/12/6 9/9/6
f 4/5/3 14/13/3 11/10/3
f 6/4/1 14/13/1 7/14/1
f 1/3/2 10/7/2 9/9/2
f 1/3/2 13/12/2 5/6/2
f 6/4/1 13/12/1 12/11/1
f 4/5/3 10/7/3 2/2/3
usemtl Floor
f 3/1/1 4/5/1 2/2/1
usemtl Wall
f 6/4/2 7/14/2 4/5/2
f 5/6/3 6/4/3 3/1/3
f 10/7/4 11/10/4 8/8/4
f 11/10/5 14/13/5 12/11/5
f 8/8/6 12/11/6 13/12/6
f 4/5/3 7/14/3 14/13/3
f 6/4/1 12/11/1 14/13/1
f 1/3/2 2/2/2 10/7/2
f 1/3/2 9/9/2 13/12/2
f 6/4/1 5/6/1 13/12/1
f 4/5/3 11/10/3 10/7/3
